
<svg height="800" width="1000" xmlns="http://www.w3.org/2000/svg">

   <polygon points=" 0,0 1000,0 1000,1000 0,1000" style="fill:#BBD4AA;stroke:purple;stroke-width:1" />



  <polygon points="500,500 460,400  400,500" style="fill:#9D8D7D;stroke:purple;stroke-width:1" />

  <!-- <polygon points="500,500 450,500  480,450" style="fill:#8D9379;stroke:purple;stroke-width:1" /> -->
  
  <polygon points="410,350 400,500 460,400 " style="fill:#976983;stroke:purple;stroke-width:1" />
  <polygon points="400,500 410,350 250,250 350,410" style="fill:#823B8B;stroke:purple;stroke-width:1" />
  <polygon points="350,410 350,410 250,250 270,350" style="fill:#3F297C;stroke:purple;stroke-width:1" />
  <polygon points="270,350 250,250 160,320" style="fill:#2E2051;stroke:purple;stroke-width:1" />
  <polygon points="250,250 160,320 100,220 " style="fill:#270C2F;stroke:purple;stroke-width:1" />
  
  <polygon points="320,500 400,500 350,410 " style="fill:#52196A;stroke:purple;stroke-width:1" />
  <polygon points="320,500 350,410 230,460" style="fill:#3F297C;stroke:purple;stroke-width:1" />
  <polygon points="230,460 350,410  270,350 " style="fill:#3F297C;stroke:purple;stroke-width:1" />
  <polygon points="270,350 230,460 170,410 " style="fill:#2E2051;stroke:purple;stroke-width:1" />
  <polygon points="270,350 160,320 170,410 " style="fill:#270C2F;stroke:purple;stroke-width:1" />
  
  
  
  
  
   <polygon points="500,500 400,500 400,570 " style="fill:#92927D;stroke:purple;stroke-width:1" />
   
   <!-- <polygon points="500,500 450,500  450,540" style="fill:#8D9379;stroke:purple;stroke-width:1" /> -->
   

   <polygon points="500,500 400,570 460,620 " style="fill:#9D8D7D;stroke:purple;stroke-width:1" />
   
   <!-- <polygon points="500,500 450,535  490,530" style="fill:#8D9379;stroke:purple;stroke-width:1" /> -->

   
   
   <polygon points="320,500 400,500 400,570 " style="fill:#976983;stroke:purple;stroke-width:1" />
   <polygon points="320,500 400,570 270,510 " style="fill:#823B8B;stroke:purple;stroke-width:1" />
   <polygon points="400,570 270,510 240,560 " style="fill:#3F297C;stroke:purple;stroke-width:1" />
   <polygon points="400,570 250,600 240,560 " style="fill:#270C2F;stroke:purple;stroke-width:1" />
   <polygon points="400,570 250,680 240,560 " style="fill:#270C2F;stroke:purple;stroke-width:1" />
   <polygon points="400,570 250,680 320,680 " style="fill:#3F297C;stroke:purple;stroke-width:1" />
   <polygon points="400,570 320,680 400,670" style="fill:#823B8B;stroke:purple;stroke-width:1" />
   <polygon points="400,570 400,670 460,620 " style="fill:#976983;stroke:purple;stroke-width:1" />
   
   
   
   
   
  

  <polygon points="520,500 560,400  620,500" style="fill:#9D8D7D;stroke:purple;stroke-width:1" />

 <!-- <polygon points="500,500 450,500  480,450" style="fill:#8D9379;stroke:purple;stroke-width:1" transform=" translate (1020,0)scale(-1,1)"/>  -->

  <polygon points="610,350 620,500 560,400 " style="fill:#976983;stroke:purple;stroke-width:1" />
  <polygon points="620,500 610,350 770,250 670,410" style="fill:#823B8B;stroke:purple;stroke-width:1" />
  <polygon points="670,410 670,410 770,250 750,350" style="fill:#3F297C;stroke:purple;stroke-width:1" />
  <polygon points="750,350 770,250 860,320" style="fill:#2E2051;stroke:purple;stroke-width:1" />
  <polygon points="770,250 860,320 920,220 " style="fill:#270C2F;stroke:purple;stroke-width:1" />
  
  <polygon points="700,500 620,500 670,410 " style="fill:#52196A;stroke:purple;stroke-width:1" />
  <polygon points="700,500 670,410 790,460" style="fill:#3F297C;stroke:purple;stroke-width:1" />
  <polygon points="790,460 670,410  750,350 " style="fill:#3F297C;stroke:purple;stroke-width:1" />
  <polygon points="750,350 790,460 850,410 " style="fill:#2E2051;stroke:purple;stroke-width:1" />
  <polygon points="750,350 860,320 850,410 " style="fill:#270C2F;stroke:purple;stroke-width:1" />
  
  
  
  
  
   <polygon points="520,500 620,500 620,570 " style="fill:#92927D;stroke:purple;stroke-width:1" />
    <polygon points="520,500 620,570 560,620 " style="fill:#9D8D7D;stroke:purple;stroke-width:1" /> 

   <!-- <polygon points="500,500 450,500  450,535" style="fill:#8D9379;stroke:purple;stroke-width:1" transform=" translate (1020,0)scale(-1,1)"/>
   <polygon points="500,500 450,535  490,530" style="fill:#8D9379;stroke:purple;stroke-width:1" transform=" translate (1020,0)scale(-1,1)"/> -->
   


   <polygon points="700,500 620,500 620,570 " style="fill:#976983;stroke:purple;stroke-width:1" />
   
   <!-- <line x1="450" y1="500" x2="400" y2="570" style="stroke:purple ;stroke-width:1" />
   <line x1="450" y1="500" x2="400" y2="570" style="stroke:purple ;stroke-width:1" transform=" translate (1020,0)scale(-1,1)"/>
   <line x1="450" y1="500" x2="460" y2="400" style="stroke:purple ;stroke-width:1" />
   <line x1="450" y1="500" x2="460" y2="400" style="stroke:purple ;stroke-width:1" transform=" translate (1020,0)scale(-1,1)"/>
   <line x1="489" y1="535" x2="400" y2="570" style="stroke:purple ;stroke-width:1" />
   <line x1="489" y1="535" x2="400" y2="570" style="stroke:purple ;stroke-width:1" transform=" translate (1020,0)scale(-1,1)"/>
   <line x1="476" y1="570" x2="400" y2="570" style="stroke:purple ;stroke-width:1" transform=" translate (1020,0)scale(-1,1)"/>
   <line x1="476" y1="570" x2="400" y2="570" style="stroke:purple ;stroke-width:1" /> -->

   <polygon points="700,500 620,570 750,510 " style="fill:#823B8B;stroke:purple;stroke-width:1" />
   <polygon points="620,570 750,510 780,560 " style="fill:#3F297C;stroke:purple;stroke-width:1" />
   <polygon points="620,570 770,600 780,560 " style="fill:#270C2F;stroke:purple;stroke-width:1" />
   <polygon points="620,570 770,680 780,560 " style="fill:#270C2F;stroke:purple;stroke-width:1" />
   <polygon points="620,570 770,680 700,680 " style="fill:#3F297C;stroke:purple;stroke-width:1" />
   <polygon points="620,570 700,680 620,670" style="fill:#823B8B;stroke:purple;stroke-width:1" />
   <polygon points="620,570 620,670 560,620 " style="fill:#976983;stroke:purple;stroke-width:1" />
   
   
   
    

    <circle cx="510" cy="450" r="15" stroke="purple" stroke-width="1" fill="#A4C969" />
   
   <polygon points="500,470 520,470 510,600 " style="fill:#A4C969;stroke:purple;stroke-width:1" />

   <line x1="470" y1="375" x2="510" y2="435" style="stroke:purple ;stroke-width:1" />
   <line x1="550" y1="375" x2="510" y2="435" style="stroke:purple ;stroke-width:1" />
    
</svg>